<svg xmlns="http://www.w3.org/2000/svg" width="70" height="70"><g fill="#ffffff"><rect width="14" height="14"/><rect width="14" height="14" x="14"/><rect width="14" height="14" fill="#000000" x="28"/><rect width="14" height="14" x="42"/><rect width="14" height="14" fill="#000000" x="56"/><rect width="14" height="14" fill="#000000" y="14"/><rect width="14" height="14" x="14" y="14"/><rect width="14" height="14" x="28" y="14"/><rect width="14" height="14" x="42" y="14"/><rect width="14" height="14" x="56" y="14"/><rect width="14" height="14" fill="#000000" y="28"/><rect width="14" height="14" x="14" y="28"/><rect width="14" height="14" x="28" y="28"/><rect width="14" height="14" x="42" y="28"/><rect width="14" height="14" x="56" y="28"/><rect width="14" height="14" fill="#000000" y="42"/><rect width="14" height="14" x="14" y="42"/><rect width="14" height="14" x="28" y="42"/><rect width="14" height="14" x="42" y="42"/><rect width="14" height="14" x="56" y="42"/><rect width="14" height="14" fill="#000000" y="56"/><rect width="14" height="14" x="14" y="56"/><rect width="14" height="14" x="28" y="56"/><rect width="14" height="14" x="42" y="56"/><rect width="14" height="14" x="56" y="56"/></g></svg>