<?xml version="1.0" encoding="utf-8"?>
<!-- Generator: Adobe Illustrator 26.0.1, SVG Export Plug-In . SVG Version: 6.00 Build 0)  -->
<svg version="1.1" id="Layer_1" xmlns="http://www.w3.org/2000/svg" xmlns:xlink="http://www.w3.org/1999/xlink" x="0px" y="0px"
	 viewBox="0 0 723.4 40.3" style="enable-background:new 0 0 723.4 40.3;" xml:space="preserve">
<style type="text/css">
	.st0{fill:#FFFFFF;}
</style>
<g>
	<g>
		<polygon class="st0" points="13.5,2 24.2,37.9 37.4,37.9 26.6,2 		"/>
		<polygon class="st0" points="35.8,2 46.5,37.9 59.7,37.9 48.9,2 		"/>
		<polygon class="st0" points="58.1,2 65.2,25.8 71.3,2 		"/>
		<polygon class="st0" points="1.9,37.9 15.1,37.9 8,14.1 		"/>
	</g>
	<g>
		<g>
			<path class="st0" d="M130.1,2h11l-9.2,35.9h-11l5.6-22l-23,15.2L87.9,15.8l-5.7,22.1h-11L80.4,2h11l15.7,14.9L130.1,2z"/>
			<path class="st0" d="M185.5,1.4c5.8,0,10.1,1.7,12.8,5.1s3.5,7.9,2.1,13.4c-1.4,5.5-4.4,10-8.9,13.4c-4.5,3.4-9.7,5.1-15.5,5.1
				h-20.5c-5.7,0-9.9-1.7-12.8-5.1c-2.8-3.4-3.6-7.9-2.1-13.4s4.4-10,8.9-13.4c4.6-3.4,9.7-5.1,15.5-5.1H185.5z M178.7,28
				c2.4,0,4.6-0.8,6.5-2.3c1.9-1.5,3.2-3.4,3.8-5.8c0.6-2.3,0.3-4.2-0.8-5.7c-1.1-1.5-2.9-2.3-5.3-2.3h-20.5c-2.4,0-4.6,0.8-6.5,2.3
				c-1.9,1.5-3.2,3.5-3.8,5.7c-0.6,2.3-0.3,4.2,0.8,5.8c1.1,1.5,2.9,2.3,5.3,2.3H178.7z"/>
			<path class="st0" d="M641,1.4c5.8,0,10,1.7,12.8,5.1c2.8,3.4,3.5,7.9,2.1,13.4c-1.4,5.5-4.4,10-9,13.4c-4.5,3.4-9.7,5.1-15.5,5.1
				H611c-5.7,0-9.9-1.7-12.8-5.1c-2.8-3.4-3.6-7.9-2.2-13.4s4.4-10,8.9-13.4c4.5-3.4,9.7-5.1,15.5-5.1H641z M634.2,28
				c2.4,0,4.5-0.8,6.5-2.3c1.9-1.5,3.2-3.4,3.8-5.8c0.6-2.3,0.3-4.2-0.8-5.7c-1.1-1.5-2.9-2.3-5.3-2.3h-20.5c-2.4,0-4.5,0.8-6.5,2.3
				c-1.9,1.5-3.2,3.5-3.8,5.7c-0.6,2.3-0.3,4.2,0.8,5.8s2.9,2.3,5.3,2.3H634.2z"/>
			<path class="st0" d="M263.2,2l-2.5,9.9h-22.2l-6.6,26h-11.3l6.6-26h-22.2l2.5-9.9H263.2z"/>
			<path class="st0" d="M306.1,1.4c5.8,0,10,1.7,12.8,5.1s3.5,7.9,2.1,13.4c-1.4,5.5-4.4,10-9,13.4c-4.5,3.4-9.7,5.1-15.5,5.1h-20.5
				c-5.7,0-9.9-1.7-12.8-5.1c-2.8-3.4-3.6-7.9-2.1-13.4s4.4-10,8.9-13.4c4.5-3.4,9.7-5.1,15.5-5.1H306.1z M299.3,28
				c2.4,0,4.5-0.8,6.5-2.3s3.2-3.4,3.8-5.8c0.6-2.3,0.3-4.2-0.8-5.7c-1.1-1.5-2.9-2.3-5.3-2.3h-20.5c-2.4,0-4.5,0.8-6.5,2.3
				c-1.9,1.5-3.2,3.5-3.8,5.7c-0.6,2.3-0.3,4.2,0.8,5.8s2.9,2.3,5.3,2.3H299.3z"/>
			<path class="st0" d="M320.5,37.9L329.7,2h40c4.5,0,7.8,1.3,10,4s2.7,5.9,1.7,9.8c-0.7,2.7-2,5.1-4,7.3c-2,2.2-4.4,3.9-7.1,5
				l3.9,9.7H361l-2.8-8.2h-24.3l-2.1,8.2L320.5,37.9L320.5,37.9z M336.4,19.8h28.7c1.1,0,2.1-0.4,3.1-1.1c1-0.8,1.6-1.7,1.9-2.8
				s0.1-2-0.4-2.8c-0.6-0.8-1.4-1.1-2.5-1.1h-28.7L336.4,19.8z"/>
			<path class="st0" d="M466.7,2h12.4l-27.6,35.9H436l-7-24.4l-19.6,24.4h-15.5L384.6,2H397l6.6,27.4L425,2h12.7l8.2,27.5L466.7,2z"
				/>
			<path class="st0" d="M516.4,37.9l0-5.7h-34.2l-2.9,5.7h-11.4L486.5,2h41l0.3,35.9H516.4z M487.3,22.2h29l0-10.3h-23.7L487.3,22.2
				z"/>
			<path class="st0" d="M710,2H721l-9.2,35.9h-11.1l-28.6-22.4l-5.8,22.4h-11.1L664.6,2h11.1l28.6,22.5L710,2z"/>
			<path class="st0" d="M563.5,16.1l-3.2,8.5h17.6c-0.2,0.5-2,3.4-7.4,3.4H550c-2.4,0-4.2-0.8-5.3-2.3s-1.4-3.4-0.8-5.8
				c0.6-2.3,1.8-4.2,3.8-5.7c1.9-1.5,4.1-2.3,6.5-2.3h20.5c2,0,3.5,0.5,4.6,1.6h13.6c-0.2-2.6-1.1-5-2.7-6.9
				c-2.8-3.4-7.1-5.1-12.8-5.1h-20.5c-5.8,0-10.9,1.7-15.5,5.1s-7.5,7.9-8.9,13.4c-1.4,5.5-0.7,10,2.2,13.4
				c2.8,3.4,7.1,5.1,12.8,5.1h20.5c5.8,0,10.9-1.7,15.5-5.1s7.5-7.9,9-13.4c0.2-0.9,0.5-3.1,0.7-3.9L563.5,16.1L563.5,16.1z"/>
		</g>
	</g>
</g>
</svg>
